<?xml version="1.0" encoding="UTF-8"?><svg id="Calque_2" xmlns="http://www.w3.org/2000/svg" viewBox="0 0 222.56 113.69"><defs><style>.cls-1{fill:#fff;stroke:#fff;stroke-miterlimit:10;}</style></defs><g id="photo"><g><g><path class="cls-1" d="M3.66,23.79c-1.42,1.86-2.13,3.87-2.13,6.03,0,2.57,1.08,4.56,3.24,5.99,1.26,.85,2.69,1.27,4.28,1.27s2.99-.31,4.16-.94c2.21-1.15,3.46-3.08,3.73-5.78,.03-.19,.04-.38,.04-.57,0-1.01-.28-2.1-.84-3.28-.56-1.17-1.47-2.25-2.73-3.24l-7.38-5.82c-1.61-1.26-2.42-2.88-2.42-4.88s.64-3.68,1.93-5.06c1.28-1.38,3.02-2.07,5.21-2.07,1.09,0,2.28,.14,3.57,.41h1.64l.08,5.04h-.41c-.03-1.31-.5-2.34-1.41-3.1-.92-.75-2.06-1.13-3.44-1.13s-2.54,.46-3.46,1.37c-.93,.92-1.39,2.09-1.39,3.53s.6,2.63,1.8,3.59l7.58,5.99c3.01,2.38,4.51,5.25,4.51,8.61,0,2.51-1,4.67-2.99,6.48-1.72,1.56-4.02,2.34-6.89,2.34-1.75,0-3.31-.33-4.67-.98-2.57-1.2-4.11-3.25-4.63-6.15-.08-.44-.12-.99-.12-1.66s.19-1.58,.57-2.75c.38-1.16,1.12-2.33,2.21-3.51l.37,.29Z"/><path class="cls-1" d="M24.28,34.28c.71,0,1.32-.25,1.82-.76,.51-.5,.77-1.11,.8-1.82V8.74c0-.66-.26-1.21-.78-1.66-.52-.45-1.13-.68-1.84-.68h-.49l-.04-.41h8.32c.85,0,1.77-.08,2.77-.25,1-.16,1.7-.33,2.11-.49v5.17h-.41v-.74c0-.66-.23-1.22-.68-1.68-.45-.46-.99-.71-1.62-.74h-4.67v12.67h7.79c.55-.03,1.01-.23,1.39-.62s.57-.86,.57-1.44v-.57h.41v6.48h-.41v-.62c0-.55-.18-1.01-.55-1.39-.37-.38-.83-.59-1.37-.62h-7.83v12.26h8.73c2.02,0,3.57-.45,4.63-1.35,1.07-.9,1.95-2.24,2.67-4.02h.41l-2.38,6.64H23.75v-.41h.53Z"/><path class="cls-1" d="M91.27,41.34h.49v.41c-.77,.11-1.62,.16-2.56,.16s-2.1-.21-3.48-.62c-1.38-.41-2.63-1.18-3.75-2.3-2.3-2.3-3.69-5.27-4.18-8.94l-2.5-18.25-8.53,19.27c-.77,1.67-1.23,3.06-1.39,4.18h-.41l-10.62-23.08-1.8,20.38c-.06,.46,.09,.88,.43,1.23,.34,.36,.72,.53,1.13,.53h.66v.37h-7.95v-.41h.66c.74,0,1.39-.23,1.95-.68,.56-.45,.91-1.04,1.05-1.78l2.58-22.39c-2.41-4.73-5.29-7.09-8.65-7.09-.3,0-.61,.01-.94,.04v-.41c.74-.19,1.34-.29,1.8-.29s.97,.02,1.52,.06c.55,.04,1.19,.17,1.93,.39,.74,.22,1.44,.54,2.09,.96,.66,.42,1.23,.86,1.72,1.31,.49,.45,.96,.95,1.39,1.5,.74,.98,1.33,1.93,1.76,2.83l9.88,21.4,11.03-24.72h.37l3.81,24.27c.57,3.83,1.81,6.72,3.71,8.69,1.9,1.97,4.17,2.95,6.83,2.95Z"/><path class="cls-1" d="M87.34,34.28c.71,0,1.32-.25,1.82-.76,.51-.5,.77-1.11,.8-1.82V8.74c0-.66-.26-1.21-.78-1.66-.52-.45-1.13-.68-1.84-.68h-.49l-.04-.41h8.32c.85,0,1.77-.08,2.77-.25,1-.16,1.7-.33,2.11-.49v5.17h-.41v-.74c0-.66-.23-1.22-.68-1.68-.45-.46-.99-.71-1.62-.74h-4.67v12.67h7.79c.55-.03,1.01-.23,1.39-.62s.57-.86,.57-1.44v-.57h.41v6.48h-.41v-.62c0-.55-.18-1.01-.55-1.39-.37-.38-.83-.59-1.37-.62h-7.83v12.26h8.73c2.02,0,3.57-.45,4.63-1.35,1.07-.9,1.95-2.24,2.67-4.02h.41l-2.38,6.64h-19.89v-.41h.53Z"/><path class="cls-1" d="M152.08,40.93c-2.19,.68-4.16,.81-5.9,.37-1.83-.49-3.42-1.26-4.76-2.3-1.29-1.04-2.6-2.28-3.94-3.73l-21.61-23.94V31.82c.03,.96,.45,1.67,1.27,2.13,.38,.22,.79,.33,1.23,.33h.78v.41h-8.45v-.41h.78c.68,0,1.27-.24,1.76-.72,.49-.48,.74-1.07,.74-1.78V9.27c-.14-.19-.41-.55-.82-1.09s-.75-.96-1.02-1.29c-.27-.33-.64-.76-1.11-1.29-.47-.53-.9-.96-1.29-1.29-.4-.33-.85-.71-1.37-1.15-.82-.63-1.69-1.08-2.62-1.35-.93-.27-1.71-.41-2.36-.41s-1.33,.11-2.07,.33l-.16-.41c1.31-.55,2.58-.82,3.79-.82s2.26,.14,3.14,.43c.87,.29,1.82,.8,2.83,1.54,1.01,.74,1.84,1.42,2.48,2.05s1.41,1.45,2.32,2.46l20.66,22.96V8.91c-.03-.71-.29-1.3-.78-1.78s-1.08-.72-1.76-.72h-.78v-.41h8.45v.41h-.74c-.68,0-1.27,.24-1.76,.72s-.75,1.06-.78,1.74v23.17c.27,.3,.66,.75,1.17,1.35,.51,.6,.86,1.03,1.07,1.27s.51,.6,.92,1.07,.76,.83,1.04,1.09,.64,.59,1.07,.98c.42,.4,.82,.71,1.19,.94s.79,.5,1.25,.8c.66,.38,1.4,.67,2.23,.86,.83,.19,1.52,.29,2.05,.29s1.1-.05,1.7-.16l.16,.41Z"/><path class="cls-1" d="M175.16,20.3c0,4.7-1.26,8.37-3.79,11.01-2.53,2.64-6.1,3.96-10.72,3.96-3.12,0-5.92-.66-8.43-1.97-2.5-1.31-4.44-3.1-5.82-5.37-1.38-2.27-2.07-4.8-2.07-7.61s.68-5.34,2.05-7.61c1.37-2.27,3.25-4.05,5.66-5.35,2.41-1.3,5.08-1.95,8.04-1.95,1.86,0,3.75,.25,5.68,.76s3.53,1.18,4.82,2.03l.82,5.78h-.37c-.57-2.3-1.9-4.09-3.98-5.39-2.08-1.3-4.39-1.95-6.93-1.95-3.64,0-6.66,1.29-9.08,3.87s-3.63,5.83-3.63,9.74,1.25,7.18,3.75,9.82,5.77,3.96,9.82,3.96,7.34-1.31,9.9-3.94c2.56-2.62,3.83-6.22,3.83-10.78h.41c.03,.33,.04,.66,.04,.98Z"/><path class="cls-1" d="M179.14,34.28c.71,0,1.32-.25,1.82-.76,.51-.5,.77-1.11,.8-1.82V8.74c0-.66-.26-1.21-.78-1.66-.52-.45-1.13-.68-1.84-.68h-.49l-.04-.41h8.32c.85,0,1.77-.08,2.77-.25,1-.16,1.7-.33,2.11-.49v5.17h-.41v-.74c0-.66-.23-1.22-.68-1.68-.45-.46-.99-.71-1.62-.74h-4.67v12.67h7.79c.55-.03,1.01-.23,1.39-.62s.57-.86,.57-1.44v-.57h.41v6.48h-.41v-.62c0-.55-.18-1.01-.55-1.39s-.83-.59-1.37-.62h-7.83v12.26h8.73c2.02,0,3.57-.45,4.63-1.35,1.07-.9,1.95-2.24,2.67-4.02h.41l-2.38,6.64h-19.88v-.41h.53Z"/><path class="cls-1" d="M205.91,23.79c-1.42,1.86-2.13,3.87-2.13,6.03,0,2.57,1.08,4.56,3.24,5.99,1.26,.85,2.69,1.27,4.28,1.27s2.99-.31,4.16-.94c2.21-1.15,3.46-3.08,3.73-5.78,.03-.19,.04-.38,.04-.57,0-1.01-.28-2.1-.84-3.28-.56-1.17-1.47-2.25-2.73-3.24l-7.38-5.82c-1.61-1.26-2.42-2.88-2.42-4.88s.64-3.68,1.93-5.06c1.29-1.38,3.02-2.07,5.21-2.07,1.09,0,2.28,.14,3.57,.41h1.64l.08,5.04h-.41c-.03-1.31-.5-2.34-1.41-3.1-.92-.75-2.06-1.13-3.44-1.13s-2.54,.46-3.46,1.37c-.93,.92-1.39,2.09-1.39,3.53s.6,2.63,1.8,3.59l7.58,5.99c3.01,2.38,4.51,5.25,4.51,8.61,0,2.51-1,4.67-2.99,6.48-1.72,1.56-4.02,2.34-6.89,2.34-1.75,0-3.31-.33-4.67-.98-2.57-1.2-4.11-3.25-4.63-6.15-.08-.44-.12-.99-.12-1.66s.19-1.58,.57-2.75,1.12-2.33,2.21-3.51l.37,.29Z"/></g><g><path class="cls-1" d="M23.62,56.31c.58-1.7,1.55-2.87,2.91-3.51,1.36-.64,3.77-.96,7.23-.96,.72,0,2.54,.03,5.46,.09,2.12,.06,3.99,.52,5.61,1.38,1.62,.86,2.88,2.08,3.79,3.64,.91,1.57,1.37,3.4,1.37,5.48,0,3.14-1,5.67-2.99,7.6-1.99,1.93-4.58,2.9-7.78,2.9h-10.17l.03-.3h.36c.5,0,.93-.17,1.29-.5,.36-.33,.57-.74,.63-1.21v-18.09c-2.5,.06-4.27,.45-5.31,1.17-.54,.38-.95,.75-1.23,1.1s-.57,.79-.87,1.33l-.33-.12Zm9.69-3.48v19.2h5.91c2.54,0,4.59-.88,6.17-2.64,1.57-1.76,2.35-4.08,2.35-6.96,0-1.9-.36-3.58-1.06-5.03-.71-1.45-1.71-2.57-3-3.38-1.29-.8-2.78-1.2-4.46-1.2h-5.91Z"/><path class="cls-1" d="M53.35,72.63c.52,0,.96-.19,1.33-.56,.37-.37,.56-.81,.58-1.33v-16.8c0-.48-.19-.88-.57-1.21-.38-.33-.83-.5-1.35-.5h-.36l-.03-.3h6.09c.62,0,1.29-.06,2.02-.18,.73-.12,1.25-.24,1.54-.36v3.78h-.3v-.54c0-.48-.17-.89-.5-1.23-.33-.34-.73-.52-1.19-.54h-3.42v9.27h5.7c.4-.02,.74-.17,1.02-.45s.42-.63,.42-1.05v-.42h.3v4.74h-.3v-.45c0-.4-.14-.74-.41-1.02s-.6-.43-1-.45h-5.73v8.97h6.39c1.48,0,2.61-.33,3.39-.99,.78-.66,1.43-1.64,1.95-2.94h.3l-1.74,4.86h-14.55v-.3h.39Z"/></g><g><path class="cls-1" d="M93.7,51.62c3.83,0,7.02,.92,9.57,2.77,3.43,2.46,5.15,6.31,5.15,11.55,0,3.79-1.06,7.02-3.17,9.7-2.29,2.86-5.48,4.29-9.57,4.29-2.16,0-4.11-.52-5.87-1.55-1.76-1.03-2.79-2.8-3.1-5.31l.59-.2c.48,1.89,1.61,3.21,3.37,3.96,1.19,.53,2.24,.79,3.17,.79,3.61,0,6.23-1.41,7.85-4.22,1.19-2.07,1.78-4.53,1.78-7.39,0-4.58-1.28-7.88-3.83-9.9-1.94-1.58-4.4-2.38-7.39-2.38-.7,0-1.31,.03-1.81,.1-.51,.07-2.72,.43-6.63,1.09v39.14c.04,1.19,.48,2.18,1.32,2.97,.84,.79,1.8,1.19,2.9,1.19h.86v.66h-14.45v-.66h.86c1.1,0,2.07-.4,2.9-1.19,.83-.79,1.28-1.78,1.32-2.97V58.35c0-1.14-.33-2.03-.99-2.67-.66-.64-1.52-.96-2.57-.96-.22,0-.44,.02-.66,.07l-.79,.07-.13-.66c2.29-.22,5.36-.65,9.21-1.29,3.85-.64,6.24-1.01,7.16-1.12,.92-.11,1.91-.17,2.97-.17Z"/><path class="cls-1" d="M114.1,50.43c2.86-1.19,5.61-1.78,8.25-1.78,2.2,0,4.47,.82,6.8,2.44,1.28,.88,2.71,2.6,4.29,5.15,1.06,1.76,2.4,4.95,4.03,9.57l8.05,22.84c1.85,5.1,3.73,9.16,5.64,12.18,1.91,3.01,3.66,5.28,5.25,6.8,1.58,1.52,3.23,2.58,4.95,3.2,1.72,.62,3.13,.92,4.26,.92s2.12-.09,3-.26l.07,.66c-2.11,.7-4.18,1.06-6.2,1.06s-4.05-.52-6.07-1.55c-2.02-1.03-3.92-2.47-5.68-4.32-3.79-3.83-7-9.66-9.64-17.49l-2.57-7.52h-18.08l-4.55,11.75c-.22,.53-.33,1.06-.33,1.58s.23,1.09,.69,1.68c.46,.59,1.18,.89,2.14,.89h.53v.66h-13.27v-.66h.59c1.06,0,2.09-.32,3.1-.96,1.01-.64,1.85-1.59,2.51-2.87l16.37-39.2c-2.38-3.39-5.32-5.08-8.84-5.08-1.58,0-3.28,.33-5.08,.99l-.2-.66Zm7.06,29.9h16.7l-5.21-15.38c-1.01-2.95-1.94-5.26-2.77-6.93l-8.71,22.31Z"/><path class="cls-1" d="M142.68,48.91h1.65c.79,0,1.87,.13,3.23,.4,1.36,.26,2.63,.65,3.79,1.16,1.17,.51,2.31,1.23,3.43,2.18,1.12,.95,2.08,1.83,2.87,2.64s1.59,1.88,2.41,3.2c.81,1.32,1.47,2.44,1.98,3.37,.5,.92,1.07,2.13,1.68,3.63,.79,1.89,1.43,3.53,1.91,4.92,.48,1.39,.75,2.15,.79,2.28,.04,.13,.11,.29,.2,.46,.13,.35,.24,.66,.33,.92,.13-.31,.44-1.12,.92-2.44,.48-1.32,.93-2.51,1.35-3.56,.42-1.06,1.07-2.55,1.95-4.49,.88-1.94,1.68-3.46,2.41-4.59,.73-1.12,1.66-2.41,2.8-3.86,1.14-1.45,2.29-2.57,3.43-3.37,2.82-1.89,5.81-2.84,8.98-2.84v.66c-2.46,0-4.98,1.3-7.56,3.89-2.57,2.6-4.77,5.73-6.6,9.41-1.83,3.67-3.32,7.48-4.49,11.42-1.17,3.94-1.75,7.29-1.75,10.06v9.7c0,1.58,.68,2.77,2.05,3.56,.66,.4,1.39,.59,2.18,.59h.79v.66h-14.39v-.66h.86c1.1,0,2.07-.4,2.9-1.19,.83-.79,1.28-1.76,1.32-2.9v-9.83c0-2.95-.62-6.4-1.85-10.36-1.23-3.96-2.82-7.75-4.75-11.38-1.94-3.63-4.25-6.7-6.93-9.21-2.68-2.51-5.32-3.76-7.92-3.76v-.66Z"/><path class="cls-1" d="M191.58,81.31c-2.29,2.99-3.43,6.23-3.43,9.7,0,4.14,1.74,7.35,5.21,9.64,2.02,1.36,4.32,2.05,6.9,2.05s4.81-.51,6.7-1.52c3.56-1.85,5.57-4.95,6.01-9.31,.04-.31,.07-.62,.07-.92,0-1.63-.45-3.39-1.35-5.28-.9-1.89-2.37-3.63-4.39-5.21l-11.88-9.37c-2.6-2.02-3.89-4.64-3.89-7.85s1.03-5.93,3.1-8.15,4.86-3.33,8.38-3.33c1.76,0,3.67,.22,5.74,.66h2.64l.13,8.12h-.66c-.04-2.11-.8-3.77-2.28-4.98-1.47-1.21-3.32-1.82-5.54-1.82s-4.08,.74-5.58,2.21c-1.5,1.47-2.24,3.37-2.24,5.68s.97,4.24,2.9,5.77l12.21,9.64c4.84,3.83,7.26,8.45,7.26,13.86,0,4.05-1.61,7.52-4.82,10.43-2.77,2.51-6.47,3.76-11.09,3.76-2.82,0-5.32-.53-7.52-1.58-4.14-1.94-6.62-5.24-7.46-9.9-.13-.7-.2-1.59-.2-2.67s.31-2.55,.92-4.42c.62-1.87,1.8-3.75,3.56-5.64l.59,.46Z"/></g></g></g></svg>